<svg width="15" height="16" viewBox="0 0 15 16" fill="none" xmlns="http://www.w3.org/2000/svg">
<circle cx="7.5" cy="8" r="7.5" fill="url(#paint0_linear_6304_25206)"/>
<path d="M7.28 11.76C7.21333 11.76 7.15667 11.7367 7.11 11.69C7.06333 11.6433 7.04 11.5867 7.04 11.52V6.8C7.04 6.73333 7.06333 6.67667 7.11 6.63C7.15667 6.58333 7.21333 6.56 7.28 6.56H8.11C8.18333 6.56 8.24 6.58333 8.28 6.63C8.32667 6.67667 8.35 6.73333 8.35 6.8V11.52C8.35 11.5867 8.32667 11.6433 8.28 11.69C8.24 11.7367 8.18333 11.76 8.11 11.76H7.28ZM7.24 5.7C7.16667 5.7 7.10667 5.68 7.06 5.64C7.02 5.59333 7 5.53333 7 5.46V4.74C7 4.67333 7.02 4.61667 7.06 4.57C7.10667 4.52333 7.16667 4.5 7.24 4.5H8.15C8.22333 4.5 8.28333 4.52333 8.33 4.57C8.37667 4.61667 8.4 4.67333 8.4 4.74V5.46C8.4 5.53333 8.37667 5.59333 8.33 5.64C8.28333 5.68 8.22333 5.7 8.15 5.7H7.24Z" fill="#191A37"/>
<defs>
<linearGradient id="paint0_linear_6304_25206" x1="22.5" y1="8" x2="7.5" y2="-7" gradientUnits="userSpaceOnUse">
<stop stop-color="white" stop-opacity="0.48"/>
<stop offset="1" stop-color="white"/>
</linearGradient>
</defs>
</svg>
