<svg width="24" height="24" viewBox="0 0 24 24" fill="none" xmlns="http://www.w3.org/2000/svg">
<path fill-rule="evenodd" clip-rule="evenodd" d="M4 20.5V7H5V20.5C5 20.8104 5.04459 20.9082 5.11053 20.9432C5.20214 20.9917 5.36051 21.006 5.79951 21.0014L5.89558 21.0004L6 21H17L17.1044 21.0004L17.2005 21.0014C17.6395 21.006 17.7979 20.9917 17.8895 20.9432C17.9554 20.9082 18 20.8104 18 20.5V7H19V20.5C19 21.147 18.7962 21.5942 18.3581 21.8266C18.0566 21.9865 17.818 22.0079 17.19 22.0013C17.0945 22.0003 17.0945 22.0003 17 22H6L5.90577 22.0004L5.80999 22.0013C5.182 22.0079 4.94337 21.9865 4.64191 21.8266C4.20384 21.5942 4 21.147 4 20.5ZM11 18V8H12V18H11ZM8 8V18H9V8H8ZM14 18V8H15V18H14Z" fill="white"/>
<path fill-rule="evenodd" clip-rule="evenodd" d="M15 2H8V4H15V2ZM16 4H22V5H1V4H7V1.5C7 1.22386 7.22386 1 7.5 1H15.5C15.7761 1 16 1.22386 16 1.5V4Z" fill="white"/>
</svg>
