<svg width="140" height="140" fill="none" xmlns="http://www.w3.org/2000/svg"><path opacity=".25" fill-rule="evenodd" clip-rule="evenodd" d="M97 40a4 4 0 014 4v44l-4-.001V45a1 1 0 00-.883-.993L96 44H36a1 1 0 00-1 1v42.999L31 88V44a4 4 0 014-4h62z" fill="url(#paint0_linear_4311_658)"/><path opacity=".25" fill-rule="evenodd" clip-rule="evenodd" d="M58 95h16l2-3h33v6a2 2 0 01-2 2H25a2 2 0 01-2-2v-6h33l2 3z" fill="url(#paint1_linear_4311_658)"/><path opacity=".25" fill-rule="evenodd" clip-rule="evenodd" d="M36 44h60a1 1 0 011 1v43H35V45a1 1 0 011-1z" fill="url(#paint2_linear_4311_658)"/><path opacity=".25" d="M93 76H49v3h44v-3z" fill="url(#paint3_linear_4311_658)"/><path opacity=".25" d="M93 82H49v3h44v-3z" fill="url(#paint4_linear_4311_658)"/><path opacity=".25" fill-rule="evenodd" clip-rule="evenodd" d="M36 44h9v44H35V45a1 1 0 011-1z" fill="url(#paint5_linear_4311_658)"/><g opacity=".1" fill="#fff"><path d="M80.868 55.143L71.5 49v3.434l6.01 3.906-.708 2.237H71.5v2.846h5.303l.707 2.237-6.01 3.906V71l9.37-6.123-1.533-4.867 1.532-4.867zM63.349 61.423h5.283v-2.846h-5.303l-.687-2.237 5.99-3.906V49l-9.369 6.143 1.532 4.867-1.532 4.867L68.652 71v-3.434l-6.01-3.906.707-2.237z"/></g><path d="M110.859 52l3.464 2.001C110.865 59.978 104.402 64 97 64c-7.401 0-13.863-4.02-17.322-9.996l3.465-2C85.91 56.784 91.079 60 97 60c5.922 0 11.093-3.218 13.859-8z" fill="url(#paint6_linear_4311_658)"/><path d="M97 24c11.046 0 20 8.954 20 20 0 3.643-.974 7.059-2.676 10l-3.465-2A15.923 15.923 0 00113 44c0-8.837-7.163-16-16-16v-4z" fill="url(#paint7_linear_4311_658)"/><path d="M96.999 24v3.999l-.314.004C87.994 28.171 81 35.269 81 44c0 2.915.78 5.648 2.141 8.002l-3.464 2A19.907 19.907 0 0177 44c0-11.045 8.954-20 19.999-20z" fill="url(#paint8_linear_4311_658)"/><g filter="url(#filter0_d_4311_658)"><path d="M100 34v11.999l5 .001-8 8-8-8 5-.001V34h6z" fill="#000"/></g><path d="M100 34v11.999l5 .001-8 8-8-8 5-.001V34h6z" fill="#fff"/><path opacity=".4" d="M66 20v16.5M66 104v16.5" stroke="#fff" stroke-linecap="square" stroke-dasharray="1 4"/><defs><linearGradient id="paint0_linear_4311_658" x1="31" y1="52.715" x2="104.143" y2="102.234" gradientUnits="userSpaceOnUse"><stop stop-color="#fff" stop-opacity=".1"/><stop offset="1" stop-color="#fff" stop-opacity=".5"/></linearGradient><linearGradient id="paint1_linear_4311_658" x1="23" y1="95.965" x2="109.988" y2="103.978" gradientUnits="userSpaceOnUse"><stop stop-color="#fff" stop-opacity=".1"/><stop offset="1" stop-color="#fff" stop-opacity=".5"/></linearGradient><linearGradient id="paint2_linear_4311_658" x1="35" y1="54.92" x2="100.023" y2="100.48" gradientUnits="userSpaceOnUse"><stop stop-color="#fff" stop-opacity=".5"/><stop offset="1" stop-color="#fff" stop-opacity=".1"/></linearGradient><linearGradient id="paint3_linear_4311_658" x1="49" y1="77.493" x2="103.913" y2="81.19" gradientUnits="userSpaceOnUse"><stop stop-color="#fff" stop-opacity=".1"/><stop offset="1" stop-color="#fff" stop-opacity=".5"/></linearGradient><linearGradient id="paint4_linear_4311_658" x1="49" y1="83.493" x2="103.913" y2="87.19" gradientUnits="userSpaceOnUse"><stop stop-color="#fff" stop-opacity=".1"/><stop offset="1" stop-color="#fff" stop-opacity=".5"/></linearGradient><linearGradient id="paint5_linear_4311_658" x1="35" y1="44" x2="60.5" y2="81.5" gradientUnits="userSpaceOnUse"><stop stop-color="#fff" stop-opacity=".1"/><stop offset="1" stop-color="#fff" stop-opacity=".5"/></linearGradient><linearGradient id="paint6_linear_4311_658" x1="114.323" y1="57.281" x2="82.943" y2="68.147" gradientUnits="userSpaceOnUse"><stop stop-color="#5C26FF"/><stop offset="1" stop-color="#8C66FF"/></linearGradient><linearGradient id="paint7_linear_4311_658" x1="111.444" y1="54.001" x2="94.864" y2="29.128" gradientUnits="userSpaceOnUse"><stop stop-color="#556FF2"/><stop offset="1" stop-color="#00BFFF"/></linearGradient><linearGradient id="paint8_linear_4311_658" x1="82.556" y1="54.003" x2="99.137" y2="29.129" gradientUnits="userSpaceOnUse"><stop stop-color="#FF9F19"/><stop offset="1" stop-color="#FC3"/></linearGradient><filter id="filter0_d_4311_658" x="67" y="17" width="60" height="64" filterUnits="userSpaceOnUse" color-interpolation-filters="sRGB"><feFlood flood-opacity="0" result="BackgroundImageFix"/><feColorMatrix in="SourceAlpha" values="0 0 0 0 0 0 0 0 0 0 0 0 0 0 0 0 0 0 127 0" result="hardAlpha"/><feOffset dy="5"/><feGaussianBlur stdDeviation="11"/><feColorMatrix values="0 0 0 0 0 0 0 0 0 0 0 0 0 0 0 0 0 0 0.3 0"/><feBlend in2="BackgroundImageFix" result="effect1_dropShadow_4311_658"/><feBlend in="SourceGraphic" in2="effect1_dropShadow_4311_658" result="shape"/></filter></defs></svg>