
<svg width="70" height="115" fill="none" xmlns="http://www.w3.org/2000/svg"><path opacity=".15" d="M35 115c19.33 0 35-3.806 35-8.5S54.33 98 35 98s-35 3.806-35 8.5 15.67 8.5 35 8.5Z" fill="url(#a)"/><mask id="b" style="mask-type:alpha" maskUnits="userSpaceOnUse" x="35" y="14" width="28" height="74"><path d="M35 14c13.764 0 28 10.48 28 28.017 0 17.821-24.493 42.962-26.974 45.461l-.165.167A1.217 1.217 0 0 1 35 88V54c6.627 0 12-5.373 12-12s-5.373-12-12-12V14Z" fill="#fff"/></mask><g mask="url(#b)"><path d="M35 14c13.764 0 28 10.48 28 28.017 0 17.821-24.493 42.962-26.974 45.461l-.165.167A1.217 1.217 0 0 1 35 88V54c6.627 0 12-5.373 12-12s-5.373-12-12-12V14Z" fill="#fff"/><path d="M121 13H-41v29.7h162V13Z" fill="url(#c)"/><path d="m102.724 1.19-140.296 81 14.85 25.721 140.296-81-14.85-25.721Z" fill="url(#d)"/><path d="m102.724 27.89-140.296 81 14.85 25.72 140.296-81-14.85-25.72Z" fill="url(#e)"/></g><path opacity=".25" fill-rule="evenodd" clip-rule="evenodd" d="M35 14v16c-6.627 0-12 5.373-12 12s5.373 12 12 12v34c-.323 0-.633-.127-.86-.355l-.166-.166C31.493 84.978 7 59.838 7 42.016 7 24.48 21.236 14 35 14Z" fill="url(#f)"/><path opacity=".4" d="M34.5 0v107" stroke="#fff" stroke-dasharray="1 4"/><defs><linearGradient id="a" x1="0" y1="105.999" x2="83.266" y2="125.964" gradientUnits="userSpaceOnUse"><stop stop-color="#fff" stop-opacity=".1"/><stop offset="1" stop-color="#fff" stop-opacity=".5"/></linearGradient><linearGradient id="c" x1="8.555" y1="28.349" x2="64.075" y2="3.454" gradientUnits="userSpaceOnUse"><stop stop-color="#556FF2"/><stop offset="1" stop-color="#00BFFF"/></linearGradient><linearGradient id="d" x1="3.994" y1="75.915" x2="56.842" y2="14.692" gradientUnits="userSpaceOnUse"><stop stop-color="#5C26FF"/><stop offset="1" stop-color="#8C66FF"/></linearGradient><linearGradient id="e" x1="6.818" y1="100.984" x2="58.912" y2="40.26" gradientUnits="userSpaceOnUse"><stop stop-color="#FF9F19"/><stop offset="1" stop-color="#FC3"/></linearGradient><linearGradient id="f" x1="18.996" y1="14" x2="50.246" y2="95.543" gradientUnits="userSpaceOnUse"><stop stop-color="#fff" stop-opacity=".5"/><stop offset="1" stop-color="#fff" stop-opacity=".1"/></linearGradient></defs></svg>