<svg width="157" height="139" fill="none" data-testid="empty-state-icon" xmlns="http://www.w3.org/2000/svg"><g opacity=".2" fill="#fff"><path fill-rule="evenodd" clip-rule="evenodd" d="m86.674 97.89 2.607-1.468c2.224 2.344 4.102 5.199 5.863 10.155 1.766 4.967 2.374 10.891-.377 16.594a1.5 1.5 0 1 1-2.702-1.303c2.292-4.751 1.85-9.793.253-14.287-1.601-4.504-3.666-7.603-5.646-9.69h.002z"/><path d="M95.659 123.502c1.573-1.276-.744-1.452-2.1-1.38-3.05-.065-3.51.926-3.358 1.43-1.316.106-1.662 1.276-1.67 1.848l.347 6.608a1 1 0 0 0 1.04.947c4.746-.201 13.189-.54 15.571-.566 2.557-.028 2.665-.693 2.399-1.022.485-7.026-7.95-8.171-12.23-7.865z"/></g><path opacity=".25" d="M72.784 2.48a11.782 11.782 0 0 1 11.432 0l38.068 21.229C125.821 25.68 128 29.326 128 33.27v42.458c0 3.945-2.179 7.59-5.716 9.563L84.216 106.52a11.784 11.784 0 0 1-11.432 0L34.716 85.29C31.179 83.32 29 79.674 29 75.73V33.271c0-3.945 2.179-7.59 5.716-9.563L72.784 2.48z" stroke="#fff" stroke-dasharray="1 4"/><path d="M73.498 9.286a10.23 10.23 0 0 1 9.93 0l33.07 18.451c3.072 1.715 4.965 4.883 4.965 8.311v36.903c0 3.43-1.893 6.597-4.965 8.312l-33.07 18.451a10.228 10.228 0 0 1-9.93 0l-33.07-18.451c-3.072-1.715-4.965-4.883-4.965-8.312V36.05c0-3.43 1.893-6.597 4.965-8.312l33.07-18.451z" fill="url(#a)" fill-opacity=".27"/><circle cx="57.463" cy="46" r="5" fill="url(#b)" fill-opacity=".5"/><path opacity=".15" d="m49.463 39 12-3" stroke="#fff" stroke-width="3" stroke-linecap="round"/><circle r="5" transform="matrix(-1 0 0 1 99.463 46)" fill="url(#c)" fill-opacity=".5"/><path opacity=".15" d="m107.463 39-12-3" stroke="#fff" stroke-width="3" stroke-linecap="round"/><g opacity=".2"><path d="M146.375 44.113c-2.018 0-2.522-1.07-2.522-1.604-3.325-1.57-3.783-3.554-3.897-4.586-.092-.825-.421-2.178-.574-2.75-1.375.114-2.178-1.72-.344-2.637 1.468-.734 2.599.535 2.981 1.26-.039-.343-.092-1.352 0-2.636.114-1.604-1.49-2.865.917-3.897 1.925-.825 2.56.879 2.636 1.834.115-2.293 2.751-2.407 3.439-1.26.461.767.15 2.553-.165 3.742.451-1.328 1.08-1.694 1.884-1.794.917-.115 2.293.23 1.491 2.407-.803 2.178-.459 3.783-.574 5.731-.091 1.56-1.49 3.477-2.177 4.242 0 1.031-.574 1.948-3.095 1.948z" fill="#fff"/><path fill-rule="evenodd" clip-rule="evenodd" d="M146.976 41.245c.825.078 1.43.81 1.351 1.635-.352 3.71-1.534 9.938-5.796 14.401-4.307 4.511-12.562 6.906-21.062 6.906v-3c9.184.22 16.203-2.91 19.895-6.776 3.738-3.914 3.68-8.686 3.977-11.815a1.5 1.5 0 0 1 1.635-1.351zM67.322 96.242l3.344 1.936c.739 7.013-1.358 16.748-11.83 25.384a1.5 1.5 0 0 1-1.908-2.315c10.867-8.961 11.735-18.957 10.394-25.005z" fill="#fff"/><path d="M61.366 121.979c1.725-.494-.103-1.442-1.233-1.853-2.464-1.112-3.183-.464-3.234 0-1.11-.371-1.797.463-2.003.926l-1.97 5.402a.998.998 0 0 0 .584 1.278c3.957 1.491 10.851 4.104 12.785 4.903 2.095.865 2.413.36 2.31 0 2.834-5.56-3.645-9.421-7.24-10.656z" fill="#202046"/><path d="M61.366 121.979c1.725-.494-.103-1.442-1.233-1.853-2.464-1.112-3.183-.464-3.234 0-1.11-.371-1.797.463-2.003.926l-1.97 5.402a.998.998 0 0 0 .584 1.278c3.957 1.491 10.851 4.104 12.785 4.903 2.095.865 2.413.36 2.31 0 2.834-5.56-3.645-9.421-7.24-10.656z" fill="#fff"/><path fill-rule="evenodd" clip-rule="evenodd" d="M35.5 62.937c.07.825 0 1.906 0 1.906s-9.211 1.988-12.193 8.206c-2.054 4.285-1.689 9.278-.672 12.576a1.5 1.5 0 0 1-2.868.884c-1.161-3.77-1.644-9.587.835-14.757 2.54-5.298 8.335-9.082 14.898-9.877v1.062z" fill="#fff"/><path d="M29.225 99.593c-.84-.105-1.595-.942-2.166-1.86.918 1.74 1.854 3.632.217 4.153-2.017.642-3.056-1.032-3.324-1.949 0 .306-.275 1.009-1.375 1.376-1.376.458-2.179-1.147-2.408-3.21-.229-2.063-1.146-3.783-1.948-6.304-.642-2.018.267-3.974.802-4.7-.573-.726-.688-1.764 1.375-2.751 2.468-1.18 3.554.038 3.554.573.535.038 1.949.275 3.324.917 1.376.642 3.095 3.4 3.783 4.7.153-.153.619-.367 1.26 0 .803.458.689 2.063-.458 2.636-.917.458-2.14-.191-2.636-.573 0 1.72 1.375 3.668 1.834 4.47.458.803 0 2.751-1.834 2.522z" fill="#fff"/></g><path d="M65.463 63.957V57h26v7.51C91.23 68.005 88.329 75 78.579 75s-12.807-7.362-13.116-11.043z" fill="#222142"/><path opacity=".25" d="M71.125 73.112c2.148-2.348 9.08-5.636 15.125 0-2.185 1.425-9.17 3.42-15.125 0zM65.463 61v-4h26v4c-12.126-1.646-22.386-.686-26 0z" fill="#fff"/><defs><linearGradient id="a" x1="103.23" y1="8" x2="77.672" y2="103.002" gradientUnits="userSpaceOnUse"><stop stop-color="#fff" stop-opacity=".1"/><stop offset="1" stop-color="#fff" stop-opacity=".63"/></linearGradient><linearGradient id="b" x1="52.463" y1="41" x2="62.663" y2="51.1" gradientUnits="userSpaceOnUse"><stop stop-color="#fff" stop-opacity=".1"/><stop offset="1" stop-color="#fff" stop-opacity=".5"/></linearGradient><linearGradient id="c" x1="0" y1="0" x2="10.2" y2="10.1" gradientUnits="userSpaceOnUse"><stop stop-color="#fff" stop-opacity=".1"/><stop offset="1" stop-color="#fff" stop-opacity=".5"/></linearGradient></defs></svg>