<svg width="70" height="70" viewBox="0 0 70 70" fill="none" xmlns="http://www.w3.org/2000/svg">
<g id="thumb 01">
<circle id="Mask" cx="35" cy="35" r="35" fill="#6012F5"/>
<path id="Shape" fill-rule="evenodd" clip-rule="evenodd" d="M35.5781 24H33.4219C27.6661 24 23 28.5634 23 34.1931C23 39.8209 27.6661 44.6067 33.4219 44.6067H35.5781C36.8968 44.6067 38.157 44.1412 39.3185 43.7041L42.8471 45.4839C43.6387 45.7868 44.481 45.1732 44.412 44.345L44.1792 40.1512C45.7604 38.3644 46 36.7404 46 34.1921C46 28.5634 41.3329 24 35.5781 24ZM42.758 38.8368C42.4142 39.2258 42.2371 39.7394 42.2663 40.2629L42.4225 43.0836L40.1657 41.9457C39.6947 41.7083 39.1491 41.6789 38.6563 41.8644C37.1172 42.4436 36.3774 42.6465 35.5781 42.6465H33.4219C28.7596 42.6465 24.9167 38.7741 24.9167 34.1921C24.9167 29.665 28.7059 25.9602 33.4219 25.9602H35.5781C40.2941 25.9602 44.0833 29.667 44.0833 34.1911C44.0833 36.6688 43.8217 37.6352 42.758 38.8368Z" fill="white"/>
</g>
</svg>
